<?xml version="1.0" encoding="UTF-8"?>
<svg version="1.1" xmlns="http://www.w3.org/2000/svg" width="1606" height="1986">
<path d="M0 0 C2.71379952 0.63359748 5.42729191 1.26846344 8.140625 1.90405273 C9.2845874 2.17093021 9.2845874 2.17093021 10.45166016 2.44319916 C16.34940398 3.82627643 22.18917334 5.34792631 28 7.0625 C28.98726074 7.35358643 29.97452148 7.64467285 30.99169922 7.94458008 C64.31323592 17.91450226 96.61017557 29.95995199 128 45 C128.91652344 45.43634766 129.83304688 45.87269531 130.77734375 46.32226562 C164.58880388 62.50860292 196.28300461 82.90517853 225 107 C225.49990952 107.41620102 225.99981903 107.83240204 226.51487732 108.26121521 C235.2517213 115.54782243 243.50953762 123.19164662 251.5246582 131.26391602 C253.32215805 133.07221608 255.13022316 134.86945977 256.93945312 136.66601562 C263.75256526 143.47110912 270.03796776 150.42875702 276 158 C276.97594416 159.17434787 277.95582048 160.34545094 278.94140625 161.51171875 C296.17669621 182.24444529 310.40724689 205.76717743 322.05712891 230.04931641 C322.99227794 231.98402401 323.95287493 233.90430327 324.91796875 235.82421875 C355.93258347 298.42880079 363.52141658 368.85117891 363.3831337 437.70452427 C363.37516546 443.37467043 363.38491264 449.04479369 363.3922677 454.71493691 C363.40276662 464.61828823 363.40239735 474.52159077 363.39461708 484.42494392 C363.38633445 495.032604 363.38458401 505.64023818 363.39084435 516.2478981 C363.39143621 517.25900303 363.39143621 517.25900303 363.39204003 518.29053433 C363.39408586 521.72867186 363.39624446 525.16680931 363.39844786 528.60494674 C363.41366562 552.63298391 363.41627203 576.66100697 363.41117306 600.68904772 C363.40580736 625.98390469 363.40765323 651.27874404 363.41999817 676.57359886 C363.42036951 677.33783847 363.42074085 678.10207807 363.42112344 678.88947646 C363.42529201 687.43016471 363.42969647 695.97085283 363.43419749 704.51154091 C363.44251142 720.30317336 363.44983496 736.09480628 363.45691681 751.88643932 C363.45745023 753.07128414 363.45745023 753.07128414 363.45799442 754.28006522 C363.47484372 791.81511999 363.48267057 829.35017534 363.48839001 866.88523326 C363.48876963 869.37344004 363.48915378 871.86164682 363.48953895 874.3498536 C363.49352605 900.17229023 363.49696925 925.99472693 363.50032555 951.81716365 C363.50357685 976.82172948 363.50698035 1001.82629528 363.51084633 1026.83086103 C363.51123037 1029.32135257 363.51160988 1031.81184411 363.51198892 1034.30233565 C363.51773224 1071.83218304 363.5261834 1109.36202727 363.54308319 1146.89187145 C363.54343716 1147.68100371 363.54379113 1148.47013597 363.54415583 1149.28318132 C363.55124102 1165.05061396 363.55872067 1180.81804636 363.56703588 1196.5854784 C363.57152969 1205.11232088 363.57585598 1213.63916343 363.58000183 1222.16600609 C363.58037434 1222.92876726 363.58074685 1223.69152843 363.58113065 1224.47740358 C363.59337543 1249.77193589 363.593705 1275.06645356 363.58834486 1300.36098773 C363.58332782 1324.30931645 363.58749356 1348.25762711 363.60288268 1372.2059518 C363.60507302 1375.62407305 363.60714981 1379.04219435 363.60915565 1382.4603157 C363.60975027 1383.46530125 363.60975027 1383.46530125 363.61035689 1384.49058953 C363.61669564 1395.71435077 363.61114693 1406.93808727 363.60235891 1418.16184676 C363.59551471 1427.93984617 363.59953973 1437.71780251 363.61229661 1447.49579588 C363.61924229 1453.06274873 363.62151824 1458.62959189 363.61043197 1464.19654051 C363.60041089 1469.27208244 363.60444854 1474.34742155 363.61916465 1479.42295027 C363.62205039 1481.23662511 363.62004431 1483.05031702 363.61221199 1484.86397724 C363.44966606 1525.35453555 377.34499015 1558.25972642 405.75 1587.0625 C439.75982653 1620.87913369 488.70976353 1642.19186869 536.79293823 1642.13803101 C537.83372217 1642.14085229 538.87450611 1642.14367357 539.94682896 1642.14658034 C543.41101217 1642.15486784 546.87516318 1642.15625964 550.33935547 1642.15771484 C552.83411243 1642.16238796 555.32886855 1642.16753234 557.82362366 1642.17311096 C563.18998045 1642.18436737 568.55633115 1642.1928646 573.92269516 1642.19923019 C582.4438555 1642.20962665 590.96497774 1642.23021395 599.4861145 1642.25234985 C602.41286265 1642.25982922 605.33961096 1642.26724326 608.26635933 1642.27463722 C608.99784304 1642.27648779 609.72932675 1642.27833835 610.48297664 1642.280245 C618.79984528 1642.30114862 627.11671816 1642.31998079 635.43359375 1642.33789062 C636.5728003 1642.3403479 636.5728003 1642.3403479 637.73502113 1642.34285481 C649.97382616 1642.36899915 662.21263416 1642.38772069 674.4514551 1642.40448253 C687.08099853 1642.42205521 699.71048467 1642.45106551 712.33998215 1642.4893719 C719.4045435 1642.51042659 726.46903194 1642.52621321 733.53362656 1642.52817917 C806.81385579 1642.55459458 880.09734833 1647.85523216 946.15185547 1683.02734375 C948.0891143 1684.04689978 950.04372087 1685.02531699 952.00390625 1686 C974.86666534 1697.51607635 995.81831441 1713.11886298 1015 1730 C1015.90234375 1730.79019531 1016.8046875 1731.58039063 1017.734375 1732.39453125 C1024.59446245 1738.5472933 1031.14477886 1745.01317031 1037.6875 1751.5 C1039.00621094 1752.7991333 1039.00621094 1752.7991333 1040.3515625 1754.12451172 C1045.58015747 1759.34622695 1050.38655038 1764.7502338 1055.00561523 1770.51757812 C1057.05406831 1773.06729913 1059.17875002 1775.52685459 1061.34472656 1777.97607422 C1098.92582731 1820.62720711 1126.57337005 1873.46939128 1150.5 1924.75 C1151.04599854 1925.91571533 1151.59199707 1927.08143066 1152.15454102 1928.2824707 C1152.65010498 1929.35972412 1153.14566895 1930.43697754 1153.65625 1931.546875 C1154.08744141 1932.48370117 1154.51863281 1933.42052734 1154.96289062 1934.38574219 C1155.97387255 1936.93414013 1156.4995917 1939.31316538 1157 1942 C1091.7786465 1942.0514676 1026.55729059 1942.09915923 961.33592224 1942.12702942 C959.88579232 1942.12765068 959.88579232 1942.12765068 958.40636684 1942.12828448 C937.39143536 1942.13726518 916.37650366 1942.14557545 895.36157164 1942.15319599 C885.0544429 1942.15693769 874.74731421 1942.16082739 864.44018555 1942.16479492 C863.41455398 1942.1651872 862.38892241 1942.16557948 861.3322111 1942.16598364 C828.1451189 1942.1787461 794.95804211 1942.20126383 761.77095923 1942.22889166 C727.63998101 1942.25725337 693.50901131 1942.27567111 659.3780215 1942.28174497 C654.54679822 1942.28260931 649.71557497 1942.28358622 644.88435173 1942.28463173 C643.93358601 1942.284834 642.98282029 1942.28503627 642.00324348 1942.28524467 C626.75676567 1942.28877679 611.51031436 1942.30265554 596.26384731 1942.3204961 C580.90074593 1942.33824897 565.53767056 1942.3448813 550.1745593 1942.34050413 C541.06992026 1942.33823876 531.96537714 1942.34415728 522.86075559 1942.36239263 C516.74974459 1942.37378518 510.63879516 1942.37389271 504.52777962 1942.36549544 C501.06441954 1942.36103967 497.6013814 1942.36258875 494.13801939 1942.37464955 C468.24033595 1942.45947664 442.34148026 1940.7904561 416.8125 1936.25 C416.08093689 1936.12372223 415.34937378 1935.99744446 414.59564209 1935.86734009 C335.97674324 1922.27752883 261.43009386 1890.54306548 198 1842 C197.41605469 1841.55350098 196.83210937 1841.10700195 196.23046875 1840.64697266 C183.84153591 1831.12922223 171.98511872 1821.06662796 160.54443359 1810.43115234 C158.92767623 1808.93298104 157.30269792 1807.44416059 155.67578125 1805.95703125 C147.3932365 1798.37649877 139.24094981 1790.7480681 131.9296875 1782.20703125 C130.0473253 1780.05412712 128.10700729 1777.9638778 126.15209961 1775.87695312 C120.75388365 1770.09429169 115.78517671 1764.08146664 110.96557617 1757.81103516 C109.08276314 1755.37553667 107.17270507 1752.96850159 105.22070312 1750.58813477 C97.90105123 1741.65024166 91.28741345 1732.39584426 84.9375 1722.75 C84.22223648 1721.67016342 84.22223648 1721.67016342 83.49252319 1720.56851196 C76.69592498 1710.30310521 70.10630172 1699.97174443 64.19335938 1689.16601562 C62.9295165 1686.87206842 61.63135896 1684.599903 60.328125 1682.328125 C24.70358331 1619.70592354 4.75595654 1546.47353774 0.90175056 1474.69022942 C0.83809946 1473.50869316 0.83809946 1473.50869316 0.77316248 1472.30328748 C-0.47895694 1448.12761198 -0.27771154 1423.91598553 -0.24709923 1399.71558825 C-0.23817331 1392.31440794 -0.24137355 1384.91324265 -0.24469952 1377.51205944 C-0.2505811 1363.68927267 -0.24714667 1349.86650296 -0.23841095 1336.04371834 C-0.22961447 1322.06268048 -0.22527041 1308.08165144 -0.22621536 1294.10061073 C-0.22627275 1293.21327639 -0.22633013 1292.32594205 -0.22638925 1291.41171878 C-0.22670206 1286.88616324 -0.22708595 1282.36060771 -0.22749493 1277.83505217 C-0.23030042 1245.18755869 -0.2234814 1212.54007303 -0.21146011 1179.89258194 C-0.19959309 1147.58645718 -0.19190552 1115.28033576 -0.18975449 1082.97420883 C-0.18968566 1081.96886807 -0.18961684 1080.96352731 -0.18954593 1079.92772167 C-0.18891948 1070.74474253 -0.18834411 1061.56176339 -0.18782998 1052.37878424 C-0.18655161 1029.55652299 -0.18463322 1006.73426182 -0.18227959 983.91200066 C-0.18217295 982.87301776 -0.18206632 981.83403486 -0.18195645 980.76356763 C-0.17672034 930.29061935 -0.16410808 879.81767328 -0.15087891 829.34472656 C-0.14629536 811.84153241 -0.14174453 794.33833824 -0.1373291 776.83514404 C-0.1370552 775.74951289 -0.1367813 774.66388175 -0.13649911 773.54535268 C-0.12379798 723.02493233 -0.11635559 672.5045116 -0.11025951 621.98409007 C-0.10986339 618.70204133 -0.109465 615.4199926 -0.10906615 612.13794386 C-0.10642646 590.38662933 -0.10387719 568.63531479 -0.10138843 546.88400024 C-0.09643614 503.60867548 -0.09095281 460.33335078 -0.08510434 417.05802612 C-0.08482586 414.99739887 -0.08454775 412.93677162 -0.08427001 410.87614437 C-0.07177268 318.17670583 -0.05309954 225.47726891 -0.03173828 132.77783203 C-0.03153841 131.91030019 -0.03133854 131.04276834 -0.03113261 130.14894766 C-0.02113283 86.76596501 -0.01077998 43.38298246 0 0 Z " fill="#B20909" transform="translate(0,24)"/>
<path d="M0 0 C3.57678411 0.00461191 7.15355051 -0.00250158 10.73033082 -0.00795984 C17.70181836 -0.01676457 24.67326237 -0.01497213 31.64475148 -0.00913456 C37.32093127 -0.00458208 42.99709902 -0.00402049 48.67328012 -0.00618219 C49.89399881 -0.00664189 49.89399881 -0.00664189 51.13937848 -0.00711088 C52.79362738 -0.00775045 54.44787628 -0.00839888 56.10212518 -0.00905606 C71.54527037 -0.01473331 86.98839166 -0.00824283 102.43153293 0.00254467 C115.62500608 0.0114761 128.818444 0.00992641 142.01191652 0.00070715 C157.40552399 -0.01004478 172.7991106 -0.01418247 188.19272131 -0.00806832 C189.84053778 -0.00743136 191.48835426 -0.00680261 193.13617074 -0.00618219 C194.35168561 -0.00571937 194.35168561 -0.00571937 195.59175633 -0.00524719 C201.24742909 -0.00353481 206.90308841 -0.00640355 212.55875909 -0.0111413 C219.47080405 -0.01680531 226.38280371 -0.01511973 233.29484361 -0.00457981 C236.80792006 0.00060412 240.32092157 0.00286164 243.83399713 -0.00387812 C266.13688125 -0.03626462 288.2369453 0.89133825 310.28413332 4.44894934 C310.94186738 4.55371588 311.59960145 4.65848242 312.27726686 4.7664237 C354.62875001 11.57353081 397.15353416 25.88327029 431.47163332 52.26144934 C432.82128175 53.2939884 432.82128175 53.2939884 434.19819582 54.34738684 C485.5031628 94.53363033 508.0945101 152.87679474 515.81928957 216.10715246 C518.70092723 241.33060114 518.63515432 266.64851086 518.63889039 291.99677253 C518.63960942 294.7465926 518.64175943 297.49640792 518.6443876 300.24622679 C518.65358792 309.89070841 518.65772895 319.53517637 518.65693605 329.17966223 C518.65633573 338.0887451 518.66689254 346.99776735 518.68267971 355.9068349 C518.69586035 363.6273534 518.70111563 371.34785233 518.70048064 379.06838197 C518.70022886 383.64805212 518.70289971 388.22766813 518.71365869 392.80732679 C518.82101501 441.8919723 518.82101501 441.8919723 514.28413332 464.82394934 C514.07055177 465.93342932 513.85697023 467.0429093 513.63691652 468.18600988 C511.31419536 479.76997444 508.13008838 491.03471039 504.47163332 502.26144934 C504.18481691 503.15573645 503.8980005 504.05002356 503.60249269 504.97141027 C489.42090178 548.52458055 464.45404326 592.69770318 422.51606691 614.48386145 C403.06310397 624.26144934 403.06310397 624.26144934 396.47163332 624.26144934 C396.47163332 624.92144934 396.47163332 625.58144934 396.47163332 626.26144934 C397.558313 626.35426184 398.64499269 626.44707434 399.76460207 626.54269934 C434.51367342 630.93687389 470.40196883 654.70155457 491.69966066 681.82541418 C517.85233375 715.97173082 532.74953226 758.10109176 539.47163332 800.26144934 C539.67998087 801.56692441 539.67998087 801.56692441 539.89253747 802.89877272 C543.6317287 827.8078481 542.89658735 853.01986176 542.84167826 878.13438535 C542.83020749 884.62350175 542.83448305 891.11261193 542.83642519 897.60173559 C542.8373031 908.4871132 542.82640551 919.37242657 542.80781496 930.25778723 C542.78880754 941.39061901 542.78173384 952.52337788 542.78730714 963.65622473 C542.79405519 977.17505514 542.79066312 990.69383316 542.77820337 1004.21266127 C542.77360393 1009.33597744 542.77266301 1014.45927388 542.77478921 1019.58259153 C542.77669644 1025.63137498 542.76838483 1031.68006721 542.75272882 1037.72882986 C542.74854803 1039.92593969 542.74759249 1042.12305889 542.75041902 1044.32017088 C542.77280266 1064.86043476 541.6810844 1085.35440546 538.28413332 1105.63644934 C538.06982667 1106.927526 537.85552003 1108.21860266 537.63471925 1109.54880285 C528.13752164 1165.17032366 503.21137153 1216.44070223 456.59321535 1249.78146887 C450.71355262 1253.88302415 444.64913529 1257.62875344 438.47163332 1261.26144934 C437.79084718 1261.66959875 437.11006105 1262.07774817 436.40864503 1262.49826574 C366.74101772 1304.07175324 283.24092973 1305.60519276 204.60449589 1305.53204949 C199.49941659 1305.52742785 194.39435061 1305.52693174 189.2892698 1305.52908087 C188.18465589 1305.52954057 188.18465589 1305.52954057 187.05772654 1305.53000955 C185.56005102 1305.53064923 184.0623755 1305.53129767 182.56469999 1305.53195474 C168.63286204 1305.53761132 154.70105074 1305.53117513 140.76921717 1305.520354 C128.91260364 1305.51142847 117.05602934 1305.51297152 105.19941652 1305.52219152 C91.31009291 1305.53298773 77.42079246 1305.5370566 63.53146523 1305.530967 C62.0394582 1305.53033014 60.54745116 1305.5297014 59.05544412 1305.52908087 C57.95534074 1305.52861804 57.95534074 1305.52861804 56.83301305 1305.52814586 C51.75789828 1305.52644624 46.68279883 1305.52931393 41.6076864 1305.53403997 C-10.81751558 1305.57844169 -10.81751558 1305.57844169 -33.25566161 1304.35812902 C-33.98438747 1304.31850436 -34.71311332 1304.27887969 -35.46392179 1304.23805428 C-110.79738733 1299.97387182 -190.03919449 1282.38630796 -246.52836668 1229.26144934 C-247.08685301 1228.73696203 -247.64533934 1228.21247473 -248.2207495 1227.67209387 C-289.10945142 1188.94989928 -308.63918072 1135.41632577 -314.52836668 1080.26144934 C-314.61618281 1079.49264598 -314.70399893 1078.72384262 -314.79447615 1077.93174219 C-315.85718167 1067.27041242 -315.68436598 1056.57705392 -315.6894995 1045.87546301 C-315.69413499 1043.61547278 -315.69916062 1041.35548332 -315.70454466 1039.09549475 C-315.71760261 1032.98121996 -315.72410098 1026.86695611 -315.72855532 1020.75266957 C-315.73149753 1016.92181186 -315.7356045 1013.09095707 -315.74005949 1009.26010084 C-315.75215736 998.61649144 -315.76254236 987.97288562 -315.76593459 977.32926989 C-315.76615415 976.65002384 -315.76637372 975.9707778 -315.76659994 975.27094855 C-315.76681822 974.59023843 -315.76703649 973.90952832 -315.76726139 973.20819062 C-315.76770482 971.82921501 -315.76815139 970.4502394 -315.76860106 969.07126379 C-315.76882249 968.38726971 -315.76904392 967.70327562 -315.76927206 966.99855445 C-315.77321147 955.9408982 -315.79064394 944.88330819 -315.81396058 933.82567748 C-315.837804 922.42448476 -315.84988553 911.02334001 -315.8513025 899.62211925 C-315.85234403 893.24040969 -315.85811109 886.85879368 -315.87612212 880.47710752 C-315.8927667 874.4630032 -315.89467995 868.44906111 -315.88598311 862.43494177 C-315.88522134 860.24667246 -315.88943937 858.05839382 -315.89944136 855.87014723 C-315.98109517 836.86754859 -314.47009602 818.04379915 -309.77836668 799.57394934 C-309.39430663 798.02707434 -309.39430663 798.02707434 -309.00248778 796.44894934 C-301.59121517 767.46502125 -288.69217135 740.35250519 -269.52836668 717.26144934 C-268.8726367 716.45562414 -268.8726367 716.45562414 -268.20365965 715.63351965 C-255.94685203 700.59605006 -242.33656194 686.56897945 -226.52836668 675.26144934 C-225.94941649 674.84347082 -225.37046629 674.42549231 -224.77397215 673.99484777 C-210.64292463 663.89736769 -195.6627021 656.12927199 -179.34086668 650.19894934 C-177.76426268 649.62551794 -177.76426268 649.62551794 -176.15580809 649.04050207 C-170.57261277 647.08947206 -165.42942512 645.72081317 -159.52836668 645.26144934 C-159.52836668 644.60144934 -159.52836668 643.94144934 -159.52836668 643.26144934 C-160.05551268 643.10869543 -160.58265868 642.95594152 -161.12577879 642.79855871 C-167.53843756 640.81576602 -173.22924743 638.00638536 -179.09086668 634.76144934 C-180.04960692 634.23390051 -181.00834715 633.70635168 -181.99614012 633.16281652 C-198.26998628 624.06749042 -212.9324803 613.00882612 -226.52836668 600.26144934 C-227.02739501 599.79642004 -227.52642333 599.33139074 -228.04057372 598.85226965 C-241.60278198 586.1128994 -252.03166662 571.78473727 -260.52836668 555.26144934 C-260.8952661 554.56277746 -261.26216551 553.86410559 -261.64018309 553.14426184 C-282.5028441 513.06480212 -289.66399453 466.73763867 -289.6894995 421.99411535 C-289.69413828 420.08030622 -289.69916433 418.16649799 -289.70454466 416.25269079 C-289.71757657 411.08425607 -289.72409656 405.9158343 -289.72855532 400.74738574 C-289.73150359 397.50224928 -289.73561174 394.25711621 -289.74005949 391.01198149 C-289.75371589 380.81271924 -289.76338921 370.61346492 -289.76726139 360.41419417 C-289.77172486 348.72809885 -289.78920074 337.0421215 -289.81826198 325.356062 C-289.84005885 316.26835499 -289.8499753 307.1806807 -289.8513025 298.0929479 C-289.85233862 292.69191597 -289.85798493 287.29099516 -289.87612212 281.88999128 C-290.11498691 206.38556443 -278.21567573 132.32805656 -223.52836668 76.26144934 C-181.68940096 34.77211285 -122.84593094 12.37873613 -65.40336668 4.01144934 C-64.36994139 3.86038733 -63.3365161 3.70932531 -62.27177489 3.55368567 C-41.5483857 0.74053437 -20.89542214 -0.04004898 0 0 Z M-84.54008543 188.98410559 C-87.90971603 192.84362354 -90.75532253 196.96053863 -93.52836668 201.26144934 C-94.01821043 201.97172277 -94.50805418 202.68199621 -95.01274168 203.41379309 C-117.82168445 238.30166522 -117.68791871 284.74486808 -117.69562376 324.81475687 C-117.69634359 326.92598552 -117.69849506 329.03720802 -117.70112097 331.14843512 C-117.71031852 338.55899472 -117.71446279 345.96953656 -117.71366942 353.38010168 C-117.71306958 360.21583261 -117.72361758 367.0514844 -117.73941308 373.88719535 C-117.75261472 379.81821767 -117.75784813 385.74921451 -117.75721401 391.68025136 C-117.75696277 395.19516177 -117.75960137 398.71000155 -117.77039206 402.22489691 C-117.90271699 448.61806285 -112.57603444 493.66618499 -78.77836668 528.44894934 C-68.19558212 538.89883144 -56.03312293 546.19736904 -42.52836668 552.26144934 C-41.48422606 552.73324621 -40.44008543 553.20504309 -39.36430418 553.69113684 C-8.52113104 566.52253445 25.16623297 565.7157099 57.90006721 565.63149428 C63.41286465 565.62002582 68.92565473 565.62429876 74.43846071 565.62624121 C83.68229689 565.62711894 92.926059 565.61614998 102.1698755 565.59763098 C112.81052195 565.57643376 123.45106038 565.57296469 134.09172368 565.57919294 C144.39775811 565.58491305 154.70375508 565.57921227 165.0097841 565.56801939 C169.36575592 565.56341218 173.72170452 565.56248248 178.07767808 565.56460524 C183.21451157 565.56650722 188.35123716 565.5582396 193.48804605 565.54254484 C195.35751782 565.53835142 197.22700065 565.53741746 199.09647501 565.54023504 C215.28322983 565.5609072 231.1330973 564.53019317 246.90913332 560.63644934 C247.96334474 560.37775061 249.01755617 560.11905188 250.10371339 559.85251379 C281.75523362 551.71875071 306.66735338 533.29068484 323.39692628 505.1296134 C331.4696897 491.09672251 337.38003639 476.48149877 341.22163332 460.76144934 C341.42039064 459.95618811 341.61914796 459.15092688 341.82392824 458.32126379 C344.81228807 445.38280573 345.77187556 432.43572139 345.73042238 419.19235754 C345.73314317 417.76595905 345.73671011 416.33956198 345.74104249 414.91316748 C345.75004385 411.09047676 345.74667261 407.26789581 345.74028432 403.44520354 C345.73515497 399.40585607 345.7399352 395.36651686 345.74305665 391.32716894 C345.74667846 384.5432827 345.7419466 377.75944023 345.7323755 370.97556067 C345.72151645 363.1900905 345.72500523 355.40472533 345.73602831 347.61925775 C345.74517892 340.88064943 345.74634828 334.14207227 345.74115098 327.40345973 C345.73807071 323.40286671 345.73751033 319.40232258 345.74422395 315.40173292 C345.81129676 269.16733617 342.78115287 218.88186644 309.22163332 183.57394934 C285.59869199 160.77011138 250.68749404 150.08604118 218.30595338 150.12100744 C217.42836071 150.11803632 216.55076804 150.1150652 215.64658165 150.11200404 C212.72936892 150.10338834 209.81219757 150.10181484 206.89497316 150.10031652 C204.79305883 150.09568303 202.69114534 150.09065766 200.5892328 150.08527136 C194.89212245 150.07219035 189.19502386 150.06570998 183.49790084 150.0612607 C179.92854187 150.05832102 176.35918604 150.0542144 172.78982866 150.04975653 C161.59370868 150.0360885 150.39759597 150.02642031 139.20146823 150.02255464 C126.33178686 150.01808542 113.46221231 150.00058751 100.59256339 149.97155404 C90.61163576 149.94982957 80.63073793 149.93984453 70.64978695 149.93851352 C64.70510026 149.93747251 58.76051405 149.9317173 52.81585252 149.9136939 C47.20971001 149.89702765 41.60374149 149.89514619 35.99758279 149.90383291 C33.95928352 149.90459367 31.92097417 149.90039061 29.88269937 149.89037466 C-11.36429121 149.69986243 -54.909671 158.1619743 -84.54008543 188.98410559 Z M-16.02836668 722.94894934 C-16.97502196 723.20458654 -17.92167723 723.46022375 -18.89701903 723.72360754 C-60.01335693 735.1941974 -101.0285746 758.87512862 -122.76518309 796.67307043 C-127.59615344 805.43866242 -130.75644006 814.67035506 -133.52836668 824.26144934 C-133.84676512 825.35973059 -134.16516356 826.45801184 -134.49321043 827.58957434 C-139.85975543 848.41497284 -138.82923482 870.38810599 -138.79701769 891.71413636 C-138.79188046 896.19121847 -138.79667031 900.66829322 -138.79979002 905.14537573 C-138.8034079 912.65861013 -138.79868867 920.17180496 -138.78910887 927.68503332 C-138.77823255 936.31355065 -138.78175281 944.94197336 -138.79276168 953.57048839 C-138.80190195 961.03953137 -138.8030871 968.50854623 -138.79788435 975.977593 C-138.79480084 980.41184173 -138.79425346 984.84604632 -138.80095732 989.28029203 C-139.25029771 1021.43586861 -139.25029771 1021.43586861 -134.27836668 1053.07394934 C-134.06148192 1053.93592932 -133.84459715 1054.7979093 -133.62114012 1055.68600988 C-128.88931151 1073.86787621 -121.33206306 1091.25874461 -108.52836668 1105.26144934 C-108.04271239 1105.79479895 -107.55705809 1106.32814856 -107.056687 1106.87766027 C-79.40305352 1136.87340427 -40.05486097 1148.10285814 -0.52836668 1152.26144934 C0.26047883 1152.34926546 1.04932434 1152.43708158 1.86207426 1152.5275588 C12.00317705 1153.52322858 22.14700345 1153.41730788 32.32539308 1153.42258215 C34.42125984 1153.42721863 36.51712576 1153.43224439 38.61299074 1153.43762732 C44.28126732 1153.45067923 49.94953209 1153.45718291 55.61782134 1153.46163797 C59.17265433 1153.4645823 62.7274842 1153.46868973 66.28231561 1153.47314215 C77.4431938 1153.48680232 88.60406473 1153.49647443 99.76495069 1153.50034404 C112.57513161 1153.50481177 125.38520514 1153.52230606 138.19535345 1153.55134463 C148.14328334 1153.57309835 158.09118333 1153.58305567 168.03913671 1153.58438516 C173.95819654 1153.58542407 179.87715525 1153.59113322 185.79618967 1153.60920477 C236.18243715 1153.75413223 291.89745331 1153.0429143 331.22553957 1116.60129309 C351.12638273 1095.86980603 362.10951586 1068.62017914 365.47163332 1040.26144934 C365.55353284 1039.57447784 365.63543237 1038.88750635 365.7198137 1038.17971754 C366.65341888 1029.32973064 366.62728332 1020.49692222 366.63276613 1011.61057043 C366.63740371 1009.84657709 366.64242961 1008.08258473 366.64781129 1006.3185935 C366.66085359 1001.55118975 366.6673651 996.78380004 366.67182195 992.01638126 C366.67476815 989.02490414 366.67887592 986.03343071 366.68332613 983.04195547 C366.69698443 973.64520248 366.70665717 964.24845811 366.71052802 954.8516959 C366.71499382 944.07506433 366.73247983 933.29856054 366.76152861 922.52196777 C366.78330223 914.14774893 366.7932407 905.7735656 366.79456913 897.39931881 C366.79560675 892.41927458 366.80128686 887.43935069 366.81938875 882.45933676 C366.96340937 840.43123049 366.06826838 793.53542183 336.47163332 760.26144934 C335.85932863 759.50734777 335.24702394 758.75324621 334.61616457 757.97629309 C311.52348791 730.21746734 272.42970585 722.24000344 238.47163332 718.26144934 C237.8025035 718.17819654 237.13337369 718.09494375 236.44396722 718.00916815 C226.71388327 716.95220872 216.96070286 717.10549586 207.18696535 717.10031652 C205.14062351 717.09568089 203.09428252 717.09065525 201.04794252 717.08527136 C195.51223677 717.07221474 189.97654311 717.06571531 184.44082439 717.0612607 C180.97231103 717.05831828 177.50380089 717.05421128 174.03528917 717.04975653 C163.15420239 717.03609765 152.27312308 717.02642384 141.39202833 717.02255464 C128.88570897 717.01808154 116.37949932 717.00056158 103.87321329 716.97155404 C94.1708305 716.94984131 84.46847835 716.93984522 74.76607156 716.93851352 C68.98803342 716.93747209 63.21009863 716.93170706 57.43208635 716.9136939 C51.98679404 716.89704704 46.54168091 716.8951371 41.09637201 716.90383291 C39.11528289 716.90459456 37.13418345 716.90037826 35.15311944 716.89037466 C17.83690415 716.80817365 0.72790792 718.3490931 -16.02836668 722.94894934 Z " fill="#AD0808" transform="translate(1043.5283666849136,122.73855066299438)"/>
<path d="M0 0 C0.33 0 0.66 0 1 0 C1.01458252 1.28350342 1.02916504 2.56700684 1.04418945 3.8894043 C1.10320244 8.75977228 1.18040359 13.62972611 1.26245117 18.49975586 C1.29522567 20.58725139 1.32339625 22.6748255 1.34643555 24.76245117 C1.84126572 68.4654313 14.65994017 102.13768627 45.85595703 133.15649414 C79.41907356 165.84991802 127.93141289 186.19050083 174.79293823 186.13803101 C175.83372217 186.14085229 176.87450611 186.14367357 177.94682896 186.14658034 C181.41101217 186.15486784 184.87516318 186.15625964 188.33935547 186.15771484 C190.83411243 186.16238796 193.32886855 186.16753234 195.82362366 186.17311096 C201.18998045 186.18436737 206.55633115 186.1928646 211.92269516 186.19923019 C220.4438555 186.20962665 228.96497774 186.23021395 237.4861145 186.25234985 C240.41286265 186.25982922 243.33961096 186.26724326 246.26635933 186.27463722 C246.99784304 186.27648779 247.72932675 186.27833835 248.48297664 186.280245 C256.79984528 186.30114862 265.11671816 186.31998079 273.43359375 186.33789062 C274.19306479 186.33952881 274.95253582 186.34116699 275.73502113 186.34285481 C287.97382616 186.36899915 300.21263416 186.38772069 312.4514551 186.40448253 C325.08099853 186.42205521 337.71048467 186.45106551 350.33998215 186.4893719 C357.4045435 186.51042659 364.46903194 186.52621321 371.53362656 186.52817917 C444.81385579 186.55459458 518.09734833 191.85523216 584.15185547 227.02734375 C586.0891143 228.04689978 588.04372087 229.02531699 590.00390625 230 C612.86666534 241.51607635 633.81831441 257.11886298 653 274 C653.90234375 274.79019531 654.8046875 275.58039063 655.734375 276.39453125 C662.59446245 282.5472933 669.14477886 289.01317031 675.6875 295.5 C677.00621094 296.7991333 677.00621094 296.7991333 678.3515625 298.12451172 C683.58015747 303.34622695 688.38655038 308.7502338 693.00561523 314.51757812 C695.05406831 317.06729913 697.17875002 319.52685459 699.34472656 321.97607422 C736.92582731 364.62720711 764.57337005 417.46939128 788.5 468.75 C789.04599854 469.91571533 789.59199707 471.08143066 790.15454102 472.2824707 C790.65010498 473.35972412 791.14566895 474.43697754 791.65625 475.546875 C792.08744141 476.48370117 792.51863281 477.42052734 792.96289062 478.38574219 C793.97387255 480.93414013 794.4995917 483.31316538 795 486 C745.02217513 486.08560471 695.04434517 486.16520613 645.06646729 486.2117157 C644.32660202 486.21240598 643.58673676 486.21309627 642.82445134 486.21380747 C626.74460506 486.22877253 610.664758 486.24262337 594.58490978 486.25532665 C586.69918447 486.26156325 578.81345938 486.26804603 570.92773438 486.2746582 C569.75065715 486.2756389 569.75065715 486.2756389 568.54980059 486.2766394 C543.12169643 486.29794042 517.69364787 486.33549269 492.26557739 486.3814861 C466.13165232 486.42867031 439.99775802 486.45943214 413.86379108 486.46957495 C410.17128148 486.47101569 406.47877198 486.47264388 402.78626251 486.47438622 C401.6961704 486.47489189 401.6961704 486.47489189 400.58405622 486.47540778 C388.89280001 486.48131292 377.20163902 486.50449385 365.51042162 486.53416017 C353.75249418 486.56362618 341.99466934 486.57442812 330.23670635 486.56750689 C323.86767214 486.56430226 317.49891707 486.56923856 311.1299324 486.59602737 C305.29662316 486.62038383 299.46378042 486.62157145 293.63044956 486.60449447 C291.522569 486.60238431 289.41465917 486.60870618 287.3068361 486.62441591 C276.05959292 486.70335352 267.1527407 486.3902187 257 481 C255.08826265 480.22649148 253.16832981 479.4727076 251.23828125 478.74609375 C203.31564345 460.13563374 159.60491668 434.15574979 122 399 C120.94866506 398.04851068 119.89523874 397.09932764 118.83984375 396.15234375 C113.88731235 391.70017591 109.09848985 387.24286377 104.81640625 382.125 C102.58882855 379.51897362 100.22875564 377.05511028 97.875 374.5625 C75.98169501 350.95907745 59.39139945 322.59802305 45 294 C44.6277832 293.27022949 44.25556641 292.54045898 43.87207031 291.78857422 C14.61043129 234.11934401 2.93524329 167.0576115 -1 103 C-1.05784668 102.07606445 -1.11569336 101.15212891 -1.17529297 100.20019531 C-3.14593307 66.83380832 -2.41713461 33.31595777 0 0 Z " fill="#780505" transform="translate(362,1480)"/>
<path d="M0 0 C1.77649681 -0.00642769 1.77649681 -0.00642769 3.58888245 -0.01298523 C6.08244185 -0.01870377 8.57601792 -0.01924716 11.06958008 -0.01489258 C14.86373591 -0.01173139 18.65711212 -0.03522856 22.45117188 -0.06054688 C24.88411361 -0.06282014 27.31705742 -0.06352324 29.75 -0.0625 C30.87321152 -0.07170975 31.99642303 -0.08091949 33.15367126 -0.09040833 C44.12911464 -0.02659671 53.79438538 2.29803427 62.09375 9.79296875 C77.67082753 26.36095452 77.0112954 53.8134708 76.57763672 74.81494141 C75.90947954 91.91162266 70.79872873 108.56085853 58.19140625 120.61328125 C50.14768839 128.04904369 40.61873662 128.9036646 30.12890625 128.83203125 C28.87940186 128.83585815 27.62989746 128.83968506 26.3425293 128.84362793 C23.04507872 128.84702609 19.74839842 128.83107795 16.4510498 128.80859375 C14.44270665 128.80078631 12.43506259 128.80857125 10.42675781 128.82226562 C6.53548329 128.84710558 2.64522505 128.84394934 -1.24609375 128.83203125 C-2.43178955 128.84012817 -3.61748535 128.8482251 -4.83911133 128.85656738 C-16.49705992 128.72627609 -25.47801579 125.15814898 -34.05859375 117.17578125 C-42.23671778 108.61937395 -45.63331458 98.50509729 -48.55859375 87.30078125 C-48.80738281 86.35976562 -49.05617188 85.41875 -49.3125 84.44921875 C-53.95475491 62.43908706 -51.67847947 35.71355749 -39.68359375 16.42578125 C-33.56334371 7.79185708 -25.47348879 2.87755622 -15.19332886 0.70449829 C-10.1490655 -0.06842764 -5.09318467 -0.00412533 0 0 Z M-27.55859375 23.30078125 C-38.53111676 39.99486818 -39.12367003 63.11117559 -35.83203125 82.31640625 C-33.42269802 93.6175721 -28.5509469 106.04866347 -18.5078125 112.6484375 C-11.71252573 116.21884241 -5.31029125 116.4685911 2.23828125 116.50390625 C3.18648743 116.50960632 4.1346936 116.5153064 5.1116333 116.5211792 C7.11542655 116.53060794 9.11923516 116.53715472 11.12304688 116.54101562 C14.1669465 116.5507034 17.21016539 116.58173989 20.25390625 116.61328125 C22.20702727 116.61981396 24.16015309 116.62506338 26.11328125 116.62890625 C27.0135907 116.64125305 27.91390015 116.65359985 28.8414917 116.6663208 C37.66424097 116.6356784 45.10911766 114.66698433 51.58984375 108.49609375 C62.04608067 96.09861453 63.01358875 79.48992446 62.87890625 63.98828125 C62.87534119 62.90584641 62.87534119 62.90584641 62.8717041 61.80154419 C62.81544556 50.88118704 62.16931284 40.66902144 58.44140625 30.30078125 C58.15265625 29.46417969 57.86390625 28.62757812 57.56640625 27.765625 C55.05265126 21.76179053 50.01516489 16.96864911 44.141922 14.22761536 C41.29613922 13.25092469 39.13434044 13.04136826 36.13549805 13.02612305 C35.10059738 13.01659103 34.06569672 13.00705902 32.99943542 12.99723816 C31.89102798 12.99814957 30.78262054 12.99906097 29.640625 13 C27.91511162 12.99357231 27.91511162 12.99357231 26.15473938 12.98701477 C23.72303932 12.98127703 21.2913221 12.9807671 18.85961914 12.98510742 C15.15285679 12.98826087 11.44689773 12.96482267 7.74023438 12.93945312 C5.37369892 12.93717933 3.00716133 12.93647701 0.640625 12.9375 C-0.46170975 12.92829025 -1.56404449 12.91908051 -2.69978333 12.90959167 C-12.9483923 12.97071678 -20.70565995 15.32697422 -27.55859375 23.30078125 Z " fill="#B00808" transform="translate(1266.55859375,1837.69921875)"/>
<path d="M0 0 C43.82857143 0 43.82857143 0 52.25 8.1875 C56.8134704 15.52164885 56.7806407 24.41930692 55.25 32.6875 C53.98619457 37.82226191 51.76747296 40.7498362 47.4375 43.8125 C45 45 45 45 42 45 C45.96057502 53.21094821 50.26682576 61.18212842 54.74755859 69.11865234 C55.16859863 69.86711426 55.58963867 70.61557617 56.0234375 71.38671875 C56.40419434 72.05920654 56.78495117 72.73169434 57.17724609 73.42456055 C58 75 58 75 58 76 C53.38 76 48.76 76 44 76 C39.73425557 68.63705282 35.53498871 61.24237355 31.5 53.75 C31.15001953 53.10667725 30.80003906 52.46335449 30.43945312 51.80053711 C28 47.23637921 28 47.23637921 28 45 C23.38 45 18.76 45 14 45 C14 55.23 14 65.46 14 76 C9.38 76 4.76 76 0 76 C0 50.92 0 25.84 0 0 Z M14 13 C14 20.26 14 27.52 14 35 C19.011875 35.0928125 19.011875 35.0928125 24.125 35.1875 C25.16672363 35.21481201 26.20844727 35.24212402 27.28173828 35.27026367 C32.56400483 35.31750841 36.51887188 35.15148191 41 32 C42.67967818 26.96096545 42.87064828 21.94859377 40.6875 17.0625 C38.98902321 14.78127739 38.98902321 14.78127739 36 13 C33.57954562 12.72456155 33.57954562 12.72456155 30.89453125 12.8046875 C30.00870361 12.80968262 29.12287598 12.81467773 28.21020508 12.81982422 C27.0889624 12.83803223 25.96771973 12.85624023 24.8125 12.875 C21.244375 12.91625 17.67625 12.9575 14 13 Z " fill="#B10808" transform="translate(1252,1864)"/>
</svg>
